<?xml version="1.0" standalone="no"?>
<!DOCTYPE svg PUBLIC "-//W3C//DTD SVG 20010904//EN"
 "http://www.w3.org/TR/2001/REC-SVG-20010904/DTD/svg10.dtd">
<svg version="1.0" xmlns="http://www.w3.org/2000/svg"
 width="208.000000pt" height="250.000000pt" viewBox="0 0 208.000000 250.000000"
 preserveAspectRatio="xMidYMid meet">

<g transform="translate(0.000000,250.000000) scale(0.100000,-0.100000)"
fill="#000000" stroke="none">
<path d="M894 2426 c-64 -21 -100 -43 -201 -126 -7 -6 -17 -10 -23 -10 -5 0
-10 -7 -10 -17 0 -9 -25 -42 -55 -74 -32 -33 -55 -67 -55 -79 0 -12 -11 -36
-24 -53 -13 -18 -27 -49 -30 -69 -4 -24 -13 -38 -21 -38 -8 0 -15 -7 -15 -16
0 -24 19 -54 35 -54 10 0 15 -10 15 -31 0 -17 11 -45 26 -65 23 -30 32 -34 70
-34 40 0 44 -2 44 -25 0 -13 7 -50 15 -82 23 -90 20 -110 -24 -154 -21 -22
-43 -39 -49 -39 -14 0 -22 -36 -22 -110 -1 -64 -15 -100 -39 -100 -6 0 -11 -5
-11 -11 0 -6 -6 -9 -14 -6 -8 3 -26 -3 -41 -14 -14 -12 -52 -34 -84 -50 -61
-31 -82 -53 -142 -154 -65 -108 -67 -117 -75 -267 -6 -116 -11 -153 -30 -198
-13 -30 -18 -47 -11 -36 6 10 20 28 30 40 18 20 18 20 2 -12 -11 -23 -13 -37
-6 -50 6 -9 11 -13 11 -8 0 6 14 -3 32 -20 25 -23 30 -25 24 -9 -6 16 -5 17 5
8 10 -10 17 -9 33 5 20 17 21 16 5 -3 -29 -36 -30 -42 -4 -40 18 2 22 -1 18
-13 -4 -10 -2 -14 2 -9 5 4 15 -5 22 -20 8 -16 20 -39 28 -53 8 -14 15 -45 15
-69 0 -24 3 -41 7 -37 5 4 9 12 9 17 1 5 2 12 3 15 0 4 9 0 19 -7 9 -7 14 -9
10 -5 -4 5 -3 15 4 23 6 7 8 16 4 20 -3 3 -6 1 -6 -6 0 -7 -5 -9 -12 -5 -7 5
-8 2 -3 -7 6 -11 5 -12 -6 -2 -10 10 -10 16 -1 25 16 16 42 19 42 5 0 -8 3 -8
9 1 6 10 10 10 21 -3 11 -13 10 -18 -6 -31 -19 -14 -19 -14 1 -12 13 2 19 -2
17 -11 -3 -12 0 -12 12 -1 19 15 21 0 3 -20 -10 -12 -9 -12 6 -1 16 13 22 8
18 -13 -1 -5 6 -3 15 5 9 8 19 12 22 9 5 -5 7 0 18 60 3 19 7 37 7 40 1 3 -2
5 -8 5 -5 0 -8 -11 -6 -24 2 -16 -1 -21 -10 -16 -7 5 -10 4 -5 -3 4 -7 -2 -9
-19 -6 -14 2 -25 0 -25 -6 0 -5 -8 -10 -17 -10 -15 0 -14 3 5 23 18 17 24 19
31 8 6 -9 11 -10 15 -2 9 13 -2 33 -14 26 -4 -3 -10 5 -13 17 -7 25 -22 16
-22 -13 0 -10 -4 -18 -10 -16 -5 1 -9 5 -8 9 2 4 -6 5 -17 3 -12 -2 -18 0 -14
6 3 6 9 8 12 5 7 -7 42 24 42 37 0 5 -8 3 -17 -4 -16 -12 -17 -12 -6 2 7 9 9
20 5 24 -4 5 -1 5 6 1 6 -4 12 -3 12 2 0 20 -15 21 -36 1 -21 -19 -22 -20 -20
-3 2 11 9 19 16 19 7 0 15 5 17 12 3 8 -3 11 -16 8 -11 -2 -24 1 -27 7 -5 7
-2 8 6 3 10 -6 12 -4 7 7 -3 9 3 24 14 34 10 9 19 22 19 27 0 6 -9 2 -19 -7
-12 -11 -21 -14 -26 -7 -3 6 -4 12 -1 12 3 1 11 3 16 4 6 1 13 3 18 4 4 1 0 6
-8 11 -10 6 -20 4 -32 -7 -10 -9 -18 -12 -18 -8 0 4 -9 0 -19 -9 -14 -13 -21
-14 -27 -5 -4 7 -3 10 3 6 6 -4 16 0 23 8 7 8 16 13 20 10 4 -2 19 9 35 25 15
16 35 27 45 25 12 -2 20 4 25 18 4 15 8 18 12 9 3 -7 -4 -24 -16 -36 -30 -32
-26 -40 9 -14 17 12 30 29 30 38 0 9 5 21 11 27 8 8 6 14 -9 22 -17 9 -23 6
-37 -15 -9 -14 -19 -23 -23 -20 -3 4 -18 -6 -33 -20 l-28 -27 5 29 c5 28 5 28
-15 10 -12 -11 -21 -16 -21 -11 0 4 -8 1 -17 -6 -15 -12 -15 -10 1 8 10 12 21
22 25 21 3 0 9 1 14 2 4 1 12 3 17 4 6 0 10 4 10 9 0 4 0 12 0 17 0 6 -3 9 -7
8 -5 -2 -9 0 -10 5 -2 4 -1 6 1 5 2 -2 14 6 27 17 12 11 19 13 14 5 -5 -8 -11
-24 -13 -35 -2 -14 11 -5 43 30 26 28 44 45 41 39 -7 -14 21 -27 36 -18 5 4 3
13 -6 23 -9 10 -14 21 -11 24 3 4 0 3 -6 -2 -6 -5 -18 -7 -27 -4 -10 4 -13 2
-8 -5 3 -6 2 -13 -3 -17 -6 -3 -8 6 -5 21 4 24 3 26 -10 14 -9 -7 -13 -17 -10
-22 3 -5 -2 -8 -12 -6 -10 2 -19 -2 -19 -9 0 -13 -25 -42 -25 -29 0 5 -6 3
-14 -3 -11 -9 -16 -9 -22 1 -4 7 -3 10 1 5 5 -4 24 7 42 25 34 33 46 61 15 37
-15 -13 -16 -12 -3 3 7 10 17 16 21 13 5 -3 12 0 15 5 5 8 13 5 26 -6 23 -21
38 -10 41 28 3 33 13 26 14 -10 1 -15 2 -36 3 -47 l2 -20 10 20 9 20 -2 -20
c-2 -11 1 -25 5 -32 11 -17 16 -93 6 -87 -5 3 -9 18 -9 34 0 16 -5 32 -12 36
-8 5 -9 2 -5 -9 3 -10 3 -17 -2 -17 -13 0 -1 -48 15 -61 11 -9 11 -15 3 -25
-9 -11 -7 -14 7 -14 16 0 16 -2 4 -9 -18 -12 -32 -4 -28 17 1 10 -2 17 -7 17
-11 0 -11 -11 1 -39 5 -13 4 -17 -3 -13 -6 4 -16 0 -22 -7 -7 -8 -8 -17 -3
-20 6 -3 15 0 21 8 12 14 51 11 51 -4 0 -4 -7 -13 -15 -20 -14 -12 -20 -7 -15
15 1 5 -8 1 -20 -10 -19 -17 -20 -21 -6 -23 9 -2 16 -10 16 -18 0 -7 9 -19 19
-26 16 -10 18 -15 8 -28 -11 -13 -10 -13 5 -1 25 19 52 7 39 -18 -11 -20 8
-48 24 -33 5 4 5 1 1 -5 -5 -9 -2 -11 9 -7 12 5 13 9 4 20 -7 8 -9 17 -5 21 3
4 12 -8 18 -25 7 -18 16 -32 20 -32 4 0 8 -9 8 -20 0 -11 -4 -20 -10 -20 -5 0
-10 -7 -10 -15 0 -9 -6 -12 -16 -8 -8 3 -13 12 -10 19 3 9 -2 14 -14 14 -28 0
-51 28 -45 57 2 14 1 23 -2 19 -3 -3 -13 0 -21 7 -13 9 -14 9 -8 -1 4 -6 2
-12 -4 -12 -5 0 2 -19 17 -43 14 -23 25 -44 24 -47 -8 -16 -24 -29 -31 -25 -4
2 -17 -10 -29 -28 l-22 -32 25 27 c15 17 27 24 31 17 4 -6 4 -13 1 -16 -3 -3
-1 -14 5 -25 8 -14 14 -17 23 -9 7 6 15 9 18 6 2 -3 5 2 5 10 0 10 -4 12 -12
5 -6 -5 -17 -5 -24 -1 -11 7 -11 10 0 17 21 12 60 11 55 -2 -4 -10 21 -12 32
-4 1 2 6 3 11 4 5 0 13 5 18 10 4 5 3 6 -3 3 -7 -4 -11 3 -11 21 0 15 2 21 4
14 3 -6 9 -9 15 -6 6 4 8 1 6 -7 -3 -8 1 -26 8 -40 8 -15 9 -31 4 -39 -5 -8
-5 -19 0 -25 4 -5 10 -21 13 -35 3 -19 5 -16 6 12 0 20 6 40 11 43 6 4 8 10 5
15 -7 11 45 51 56 44 5 -3 7 -10 4 -15 -3 -5 0 -6 8 -3 8 3 14 -2 14 -11 0 -8
-5 -14 -11 -13 -7 2 -11 0 -11 -4 0 -3 -11 -19 -25 -35 l-25 -28 26 23 c14 12
28 22 31 22 12 0 2 -32 -13 -41 -8 -5 -9 -9 -3 -9 6 0 23 9 37 20 29 23 42 26
31 8 -4 -8 -3 -10 2 -5 12 12 12 30 -1 39 -6 5 -4 8 5 8 8 0 -3 12 -25 25 -22
14 -33 25 -25 25 12 0 12 2 2 9 -21 13 -57 8 -57 -8 0 -8 -7 -16 -15 -18 -9
-3 -11 -1 -5 4 6 4 10 17 10 28 0 13 5 19 15 16 8 -2 38 -4 67 -5 43 0 50 -3
40 -14 -13 -17 -18 -42 -8 -42 11 0 46 40 35 40 -5 1 0 8 12 18 12 10 19 28
19 44 -1 15 2 25 7 22 4 -3 6 -10 3 -15 -11 -16 6 -10 53 23 26 18 41 25 34
16 -19 -23 9 -31 39 -11 17 13 20 13 13 2 -5 -8 -9 -22 -10 -31 -1 -10 -3 -20
-4 -23 -1 -3 -3 -9 -4 -14 0 -5 -5 -13 -10 -18 -6 -5 -6 -2 -1 6 6 11 4 13 -9
8 -11 -5 -15 -3 -10 4 4 7 1 10 -7 7 -8 -3 -15 -10 -15 -16 -1 -7 -3 -15 -4
-19 -1 -5 -2 -11 -1 -15 0 -4 -5 -5 -12 -2 -8 3 -14 -2 -14 -11 0 -20 3 -19
45 7 20 12 32 16 28 10 -11 -18 2 -15 40 9 19 11 34 18 34 16 0 -11 -98 -67
-111 -64 -8 2 -10 2 -5 -1 5 -3 -2 -13 -15 -23 -13 -10 -18 -19 -11 -19 7 0
10 -5 7 -10 -3 -6 -11 -10 -16 -10 -6 0 -7 5 -4 10 10 16 -7 12 -27 -7 -10 -9
-21 -14 -24 -10 -3 3 13 17 36 32 23 15 40 29 37 32 -3 2 -17 -3 -31 -12 -14
-10 -26 -14 -26 -9 0 4 -5 3 -12 -4 -16 -16 -31 -15 -21 0 11 19 13 38 3 38
-12 0 -22 -17 -13 -23 5 -2 2 -2 -5 -1 -9 3 -10 -1 -4 -14 5 -9 8 -24 7 -32
-3 -17 36 -22 51 -7 15 15 26 6 13 -10 -10 -12 -4 -10 18 5 39 27 57 28 24 2
-13 -11 -18 -20 -13 -20 6 0 14 5 17 11 4 6 14 8 22 5 8 -3 11 -2 8 4 -7 11
25 29 43 23 6 -3 9 -9 6 -15 -4 -6 2 -6 14 1 26 14 35 14 27 0 -4 -6 11 -1 33
10 22 11 42 18 45 15 3 -3 15 0 27 6 12 6 19 14 16 17 -3 3 -12 0 -20 -6 -8
-7 -20 -10 -25 -6 -6 3 -22 -2 -36 -11 -14 -9 -28 -14 -31 -11 -3 3 13 15 36
27 23 12 39 16 35 9 -5 -7 -3 -10 6 -7 8 3 14 10 14 18 0 7 11 19 25 28 l25
14 -25 -22 c-18 -16 -20 -20 -7 -16 11 4 16 2 12 -5 -4 -6 0 -9 8 -7 9 2 16
-1 16 -7 0 -5 -6 -9 -13 -7 -7 1 -19 -5 -26 -13 -8 -9 -8 -15 -2 -15 6 0 13 4
16 9 3 4 16 7 28 6 13 -1 32 3 43 10 11 6 26 10 33 9 6 -1 19 -2 28 -3 10 -1
14 -7 10 -16 -4 -13 -1 -12 18 2 15 11 23 27 21 40 -1 13 3 27 10 33 6 5 11
20 10 32 -1 13 7 33 18 46 11 12 17 22 12 22 -4 0 0 9 10 20 14 15 15 20 4 20
-8 1 -1 12 16 26 17 15 22 24 13 21 -26 -9 -30 8 -8 28 11 10 17 22 14 26 -3
5 3 6 12 2 11 -4 15 -2 11 4 -4 6 1 17 10 24 12 10 14 10 9 2 -10 -18 6 -16
30 3 19 15 19 16 -1 10 -21 -6 -18 -3 32 32 16 12 16 12 1 8 -25 -7 -22 1 3
15 17 8 20 8 14 -1 -5 -8 -3 -11 6 -8 8 3 14 10 14 17 0 6 7 16 15 21 13 9 13
10 0 10 -8 1 1 9 20 20 19 11 29 19 22 20 -7 0 -23 -5 -34 -11 -16 -8 -19 -8
-13 1 5 8 3 11 -6 8 -8 -3 -14 -14 -14 -26 0 -15 -13 -30 -39 -46 -21 -13 -34
-25 -27 -27 6 -2 1 -10 -11 -18 -20 -13 -22 -12 -11 1 7 8 10 17 7 21 -3 3 3
10 15 16 12 7 18 19 16 31 -2 11 1 23 7 26 7 4 8 2 4 -4 -9 -14 4 -15 24 -2
13 9 13 10 0 10 -12 1 -11 3 3 11 9 6 15 14 12 20 -3 5 0 6 8 3 8 -3 14 2 14
11 0 11 -5 14 -16 9 -9 -4 -26 -7 -38 -7 -14 1 -20 -3 -16 -10 4 -6 0 -8 -11
-4 -10 4 -15 3 -11 -3 3 -5 -6 -17 -20 -26 -13 -9 -23 -20 -20 -24 3 -5 1 -11
-4 -14 -11 -7 -9 13 2 31 9 14 -3 17 -19 5 -5 -4 -1 1 9 10 11 10 23 15 28 12
5 -3 9 -1 9 5 0 14 78 53 90 46 6 -3 18 -1 27 4 17 10 16 10 -2 11 -11 0 9 14
43 30 67 31 95 40 52 15 -15 -9 -19 -15 -10 -15 8 -1 -5 -12 -30 -25 -25 -13
-38 -24 -30 -25 13 0 13 -1 0 -11 -12 -8 -11 -9 5 -6 11 2 19 8 18 15 -2 6 4
9 12 5 13 -5 13 -7 -2 -19 -24 -18 -5 -17 27 1 15 9 19 14 10 15 -13 0 -13 1
0 10 20 13 39 12 20 -1 -11 -8 -8 -9 15 -5 22 5 26 4 15 -4 -13 -9 -13 -10 0
-10 13 0 13 -1 0 -10 -13 -9 -13 -10 0 -10 8 0 22 5 30 10 13 9 13 10 0 10
-13 0 -13 1 0 10 13 9 13 10 0 10 -9 1 -6 6 10 16 20 12 21 14 5 11 -11 -3
-29 -8 -40 -12 -13 -4 -12 -1 5 9 16 10 19 15 10 16 -13 0 -13 1 0 10 21 13
39 12 20 -1 -12 -9 -11 -10 5 -6 11 3 29 8 40 12 14 4 13 2 -5 -10 l-25 -16
35 6 c26 4 30 3 15 -4 -14 -7 -15 -10 -5 -10 12 -1 12 -3 2 -10 -11 -7 -10
-10 3 -15 26 -9 42 -7 25 4 -11 7 -11 10 -2 10 7 0 10 5 7 10 -3 6 -1 10 4 10
6 0 11 7 11 15 0 8 -3 15 -7 15 -5 0 -9 30 -11 67 -3 70 -13 97 -80 215 -51
89 -109 138 -244 205 -62 31 -147 75 -189 99 -42 24 -82 44 -90 44 -16 0 -71
134 -90 218 -10 50 -10 55 10 73 25 24 25 25 5 33 -12 4 -15 2 -10 -9 3 -9 0
-15 -8 -15 -22 0 -25 35 -7 71 14 30 16 31 19 12 2 -12 10 -27 19 -35 14 -11
16 -10 11 16 -7 34 -1 56 14 56 7 0 7 -4 0 -12 -5 -8 -6 -22 -1 -33 4 -11 8
-15 8 -9 1 5 17 10 37 11 22 1 41 8 49 20 8 10 15 14 15 8 0 -5 13 -10 29 -11
21 -1 28 3 24 12 -3 8 0 14 6 14 22 0 50 83 44 129 -4 32 -3 42 5 37 22 -13
12 10 -16 42 -16 18 -32 29 -37 24 -4 -4 -3 3 4 15 14 28 14 33 -2 33 -8 0
-21 8 -30 18 -18 20 -23 37 -8 28 5 -4 4 7 -2 24 -6 16 -18 32 -25 35 -12 4
-11 0 2 -19 19 -30 21 -40 4 -30 -7 4 -8 3 -4 -4 4 -7 3 -12 -3 -12 -6 0 -8
-6 -5 -14 7 -19 -85 -32 -118 -16 l-23 11 22 -19 c19 -17 29 -18 68 -11 26 5
50 11 54 13 4 3 15 -10 24 -29 19 -41 13 -44 -21 -12 l-25 22 14 -23 c8 -12
25 -26 39 -29 20 -5 22 -7 6 -12 -16 -6 -15 -9 8 -34 17 -18 20 -27 11 -27 -8
0 -19 8 -24 18 -9 15 -12 15 -21 2 -15 -23 -12 -30 13 -30 12 0 28 -4 36 -9
11 -7 9 -10 -8 -16 -14 -4 -31 1 -53 16 -27 20 -31 20 -25 5 4 -10 7 -20 7
-22 0 -2 8 -4 18 -4 10 0 27 -7 38 -15 18 -14 16 -14 -21 -9 -22 3 -48 13 -57
21 -12 10 -18 12 -18 4 0 -6 11 -16 24 -23 14 -6 28 -17 31 -26 4 -11 2 -12
-7 -5 -7 6 -25 13 -39 16 -15 4 -37 23 -53 47 -14 22 -32 40 -39 40 -8 0 -9
-3 -1 -8 6 -4 19 -22 29 -39 11 -18 23 -33 28 -33 4 0 5 -4 2 -10 -3 -5 -1
-10 4 -10 6 0 11 -4 11 -10 0 -5 -9 -10 -20 -10 -12 0 -20 7 -20 18 0 13 -2
14 -9 4 -6 -10 -13 -11 -34 -1 -29 13 -34 25 -15 31 8 3 9 11 3 24 -8 18 -9
18 -12 -3 -3 -13 -9 -23 -14 -23 -12 0 -12 17 1 40 7 13 7 21 0 25 -13 8 -13
75 0 75 6 0 8 -10 5 -22 -3 -13 -1 -30 4 -38 9 -13 12 -13 23 -1 7 8 8 11 2 8
-18 -11 -26 23 -9 39 18 19 19 36 3 52 -18 18 1 14 30 -6 48 -33 58 -34 22 -3
-19 17 -40 31 -47 31 -6 0 -13 7 -15 17 -3 15 -4 15 -17 -1 -12 -15 -12 -17 0
-14 8 2 13 -4 11 -14 -1 -9 2 -19 8 -23 19 -12 11 -26 -9 -16 -23 13 -31 5
-31 -28 0 -18 -3 -22 -9 -13 -11 18 -4 66 16 122 6 15 8 135 3 155 -1 6 -2 18
-1 29 1 14 4 16 14 7 8 -6 18 -7 22 -3 5 4 5 2 2 -5 -11 -18 4 -44 23 -41 9 2
16 -1 16 -7 -1 -5 -10 -8 -21 -7 -19 2 -19 2 -2 -9 10 -6 30 -8 44 -5 14 4 22
3 19 -3 -4 -5 3 -7 16 -3 19 4 21 3 12 -9 -15 -17 6 -41 26 -29 8 5 9 9 1 14
-6 4 -11 16 -11 26 0 10 -11 27 -25 38 -14 11 -25 25 -25 31 0 7 -8 15 -17 18
-10 4 -32 17 -49 30 -17 13 -36 23 -41 23 -6 0 -13 6 -16 14 -3 7 -15 16 -26
19 -13 3 -19 1 -15 -5 9 -15 -36 1 -61 20 -12 10 -15 11 -7 2 19 -22 14 -31
-12 -24 -16 4 -25 1 -30 -12 -4 -9 -4 -19 -1 -22 2 -3 7 3 11 12 3 9 11 16 16
16 6 0 8 -7 5 -15 -10 -26 14 -28 40 -4 l26 24 -18 -27 c-9 -16 -27 -28 -39
-29 -15 -1 -13 -3 9 -8 17 -4 41 -13 53 -20 30 -16 57 -78 43 -95 -6 -7 -8
-15 -6 -18 8 -8 12 -77 4 -73 -8 5 -11 -27 -10 -92 1 -79 4 -109 8 -95 3 6 9
12 14 12 5 0 5 -10 -1 -24 -5 -15 -5 -27 1 -33 17 -17 -1 -85 -23 -91 -17 -4
-18 -6 -3 -28 14 -22 14 -25 0 -30 -20 -8 -7 -27 15 -21 25 6 42 -7 34 -27 -6
-15 -7 -15 -19 1 -12 17 -14 16 -20 -9 -4 -16 -5 -34 -2 -42 4 -11 1 -13 -10
-9 -11 4 -14 15 -10 42 6 33 5 35 -9 17 -8 -11 -12 -28 -9 -37 3 -10 0 -21 -6
-25 -9 -5 -7 -10 7 -15 17 -7 17 -8 -5 -8 -17 -1 -22 -5 -17 -17 8 -21 -38
-120 -59 -128 -9 -3 -14 -10 -10 -15 10 -17 -187 -72 -250 -69 -48 2 -56 5
-61 24 -3 13 -11 21 -17 19 -24 -9 -49 48 -74 163 -46 213 -47 274 -5 280 12
2 22 -1 22 -7 0 -6 16 -11 35 -11 28 0 38 5 44 23 8 19 10 20 16 5 4 -10 12
-18 19 -18 14 0 19 37 5 45 -5 4 -9 11 -9 17 0 18 28 -12 33 -35 3 -15 5 -12
6 10 1 21 -7 41 -24 60 -13 15 -25 22 -25 15 0 -7 -5 -10 -10 -7 -6 4 -8 10
-5 15 8 13 -75 24 -88 11 -6 -6 -17 -11 -25 -11 -12 0 -14 17 -10 93 6 103 27
159 81 208 17 16 28 31 25 34 -3 3 -26 -18 -52 -46 -26 -28 -49 -49 -51 -47
-8 8 50 83 79 101 27 18 52 15 40 -5 -5 -7 -2 -8 5 -4 7 5 10 10 7 13 -3 3 2
19 11 34 15 25 23 30 48 29 3 0 19 7 36 16 26 13 33 14 40 2 6 -9 9 -9 9 -1 0
9 21 11 70 10 77 -3 108 6 63 18 -60 16 -119 13 -189 -9z m341 -65 c32 -17 33
-19 14 -24 -16 -4 -19 -11 -14 -29 6 -23 6 -23 -10 -3 -8 11 -23 26 -33 34
-15 12 -15 13 6 8 15 -4 22 -1 19 6 -2 7 -11 11 -20 11 -9 -1 -14 2 -11 7 7
12 9 12 49 -10z m-432 -6 c-3 -9 -8 -14 -10 -11 -3 3 -2 9 2 15 9 16 15 13 8
-4z m-178 -202 c-9 -21 -24 -47 -35 -58 -10 -11 -19 -24 -19 -30 -1 -5 -5 -10
-10 -10 -5 0 -13 -4 -18 -9 -5 -5 -2 -6 6 -1 9 5 12 3 9 -6 -3 -8 -10 -13 -15
-12 -6 1 -8 -9 -5 -23 3 -17 -2 -29 -14 -39 -24 -17 -29 -12 -14 15 7 13 13
33 15 46 1 14 11 34 21 45 10 11 19 26 20 34 1 7 7 21 13 32 10 17 10 17 12
-2 0 -18 2 -17 12 5 28 59 45 69 22 13z m-20 -72 c-3 -6 -11 -11 -17 -11 -6 0
-6 6 2 15 14 17 26 13 15 -4z m30 -18 c-1 -21 -3 -46 -4 -55 -1 -10 -9 -18
-19 -18 -10 0 -23 -5 -29 -11 -7 -7 -13 -8 -17 0 -4 6 9 21 28 33 46 30 47 44
1 17 -19 -12 -35 -17 -35 -12 0 6 65 76 77 82 1 1 0 -16 -2 -36z m910 -53 c3
-5 2 -10 -4 -10 -5 0 -13 5 -16 10 -3 6 -2 10 4 10 5 0 13 -4 16 -10z m-780
-30 c3 -5 1 -10 -4 -10 -6 0 -11 5 -11 10 0 6 2 10 4 10 3 0 8 -4 11 -10z
m-142 -38 c-19 -33 -58 -60 -70 -48 -4 4 -1 17 6 29 10 15 10 22 2 25 -21 7
-11 19 13 15 13 -3 32 0 43 5 25 15 26 9 6 -26z m157 -7 c6 3 10 -1 10 -9 0
-16 -22 -13 -47 7 -13 9 -37 -3 -55 -28 -4 -5 -8 3 -8 19 0 25 2 27 17 15 9
-8 14 -9 10 -2 -11 18 16 22 41 6 12 -7 27 -11 32 -8z m-248 -13 c-11 -12 -20
-14 -24 -8 -12 18 -9 22 17 24 24 2 24 1 7 -16z m108 -39 c0 -11 -63 -53 -79
-53 -7 0 -11 6 -8 13 2 6 11 11 19 9 8 -1 23 7 33 18 18 20 35 26 35 13z m127
-19 c-3 -3 -12 -4 -19 -1 -8 3 -5 6 6 6 11 1 17 -2 13 -5z m507 -29 c-4 -8
-10 -15 -15 -15 -4 0 -6 7 -3 15 4 8 10 15 15 15 4 0 6 -7 3 -15z m56 -15 c0
-13 -11 -13 -30 0 -12 8 -11 10 8 10 12 0 22 -4 22 -10z m60 -20 c0 -5 -4 -10
-10 -10 -5 0 -10 5 -10 10 0 6 5 10 10 10 6 0 10 -4 10 -10z m-117 -48 c-7
-28 -23 -24 -35 7 -6 18 -5 22 6 18 11 -4 13 -1 9 11 -5 15 -4 15 10 2 11 -10
14 -23 10 -38z m-80 -392 c-7 -28 -13 -25 -13 6 0 14 4 23 9 20 5 -3 7 -15 4
-26z m-344 -16 c22 -3 64 -1 93 5 100 23 100 23 92 10 -5 -8 -2 -10 7 -7 8 3
22 9 32 13 9 4 17 3 17 -3 0 -6 -4 -12 -9 -14 -5 -1 -11 -10 -13 -18 -2 -8 -7
-18 -12 -21 -4 -4 -3 -16 3 -27 10 -18 8 -23 -16 -36 l-28 -15 25 -8 25 -7
-30 -12 c-17 -7 -24 -13 -17 -14 22 0 3 -20 -20 -20 -14 0 -18 -5 -14 -15 3
-8 0 -15 -7 -15 -8 0 -6 -4 3 -10 13 -9 7 -14 -12 -11 -4 0 -5 -14 -2 -32 l5
-32 -15 30 c-8 17 -15 24 -15 18 -1 -7 -9 -14 -18 -14 -17 -1 -17 -2 -1 -6 25
-6 31 -36 18 -85 l-12 -43 -25 29 c-13 15 -27 25 -31 21 -4 -4 -1 -10 6 -12 6
-3 9 -10 6 -15 -4 -7 -2 -8 4 -4 8 5 12 0 12 -13 0 -19 -55 -70 -67 -63 -6 4
-23 -18 -23 -30 0 -13 18 -9 35 8 28 28 30 5 6 -61 -12 -36 -20 -69 -16 -75 3
-5 1 -18 -4 -27 -8 -14 -11 -15 -11 -3 0 12 -4 10 -15 -4 -19 -26 -19 -42 0
-26 13 11 13 8 4 -19 -13 -36 -12 -36 -35 -14 -16 16 -16 16 -10 -4 8 -24 -25
-98 -46 -106 -11 -3 -10 -9 0 -27 9 -15 10 -20 2 -15 -9 5 -11 -1 -8 -21 3
-16 3 -23 1 -16 -3 7 -8 10 -13 7 -4 -3 -13 10 -19 28 -7 19 -15 27 -19 21 -4
-7 -8 39 -10 100 -3 109 -3 113 20 124 23 12 23 12 1 6 -18 -4 -23 -1 -23 13
0 13 2 15 9 5 6 -10 13 -8 32 8 24 21 24 21 1 15 -19 -5 -23 -2 -28 24 -7 36
-24 51 -25 24 0 -10 -3 -13 -6 -5 -2 6 13 34 34 62 70 91 75 96 69 78 -7 -24
1 -23 13 1 7 13 7 29 -1 51 -8 25 -8 34 3 40 7 5 17 6 23 3 5 -3 6 -1 2 5 -4
6 -13 9 -20 6 -8 -3 -17 -1 -20 4 -3 6 0 12 7 15 9 3 14 26 15 63 1 34 6 60
13 63 8 2 7 6 -2 12 -11 7 -11 9 2 9 8 0 24 -7 35 -15 10 -8 29 -15 42 -15 26
0 30 -19 5 -21 -10 -1 -21 -1 -24 -1 -9 2 -4 -57 6 -66 5 -4 6 -2 3 3 -8 15
10 57 21 50 6 -3 14 3 20 12 8 14 12 15 22 6 10 -10 7 -19 -15 -42 -22 -23
-24 -30 -12 -34 9 -4 13 -1 10 7 -6 16 31 50 45 41 6 -3 11 -3 11 2 0 13 -64
53 -86 53 -10 0 -37 11 -59 23 -42 24 -50 46 -38 110 5 26 7 27 29 13 12 -9
41 -18 63 -22z m288 -16 c-3 -8 -6 -5 -6 6 -1 11 2 17 5 13 3 -3 4 -12 1 -19z
m299 -73 c-23 -17 -36 -19 -36 -6 0 5 10 12 23 14 12 2 24 5 27 5 3 1 -4 -5
-14 -13z m-924 -57 c-7 -7 -8 -16 -2 -23 7 -8 5 -12 -4 -12 -8 0 -13 5 -12 11
2 15 16 36 24 36 3 0 1 -5 -6 -12z m175 -10 c-3 -8 -6 -5 -6 6 -1 11 2 17 5
13 3 -3 4 -12 1 -19z m431 -11 c-1 -13 -9 -30 -17 -37 -13 -13 -14 -12 -7 5 5
11 11 28 13 38 7 24 13 21 11 -6z m82 -22 c-6 -15 -13 -26 -16 -23 -2 3 0 18
6 33 6 15 13 26 16 23 2 -3 0 -18 -6 -33z m172 19 c-12 -8 -35 -14 -50 -12
l-27 4 25 11 c14 7 36 12 50 12 l24 1 -22 -16z m-127 -4 c3 -5 1 -10 -4 -10
-6 0 -11 5 -11 10 0 6 2 10 4 10 3 0 8 -4 11 -10z m-785 -13 c0 -2 -12 -14
-27 -28 l-28 -24 24 28 c23 25 31 32 31 24z m25 -26 c-9 -8 -36 -10 -30 -2 2
4 11 8 20 8 8 0 13 -3 10 -6z m820 -11 c-2 -4 -16 -5 -31 -2 -16 3 -21 7 -14
12 15 9 52 1 45 -10z m85 0 c0 -5 -2 -10 -4 -10 -3 0 -8 5 -11 10 -3 6 -1 10
4 10 6 0 11 -4 11 -10z m232 3 c-6 -2 -10 -9 -7 -13 3 -5 -3 -14 -14 -19 -15
-9 -19 -8 -17 5 3 17 24 34 41 33 6 0 4 -3 -3 -6z m208 -3 c8 -5 11 -10 5 -10
-5 0 -17 5 -25 10 -8 5 -10 10 -5 10 6 0 17 -5 25 -10z m-1490 -4 c0 -3 -4 -8
-10 -11 -5 -3 -10 -1 -10 4 0 6 5 11 10 11 6 0 10 -2 10 -4z m805 -16 c16 -18
16 -20 2 -20 -9 0 -21 9 -27 20 -6 11 -7 20 -2 20 5 0 17 -9 27 -20z m537 3
c-6 -2 -10 -9 -6 -14 3 -5 -6 -14 -20 -20 -14 -7 -23 -15 -21 -19 2 -4 -12
-14 -31 -23 -19 -10 -32 -22 -29 -27 3 -6 0 -10 -7 -10 -9 0 -9 -3 2 -10 8 -5
11 -10 5 -10 -5 0 -17 5 -25 10 -11 7 -11 10 -2 10 7 0 11 4 8 9 -7 11 30 44
79 69 29 15 35 21 20 22 l-20 1 20 9 c11 5 25 9 30 9 6 -1 4 -3 -3 -6z m-1135
-28 c0 -8 -4 -12 -9 -9 -5 3 -6 10 -3 15 9 13 12 11 12 -6z m703 7 c0 -7 -52
-42 -64 -42 -3 0 -3 7 0 14 5 12 25 24 62 35 1 1 2 -3 2 -7z m46 -37 c-1 -8
-5 -18 -9 -21 -21 -21 19 -28 54 -10 8 4 3 -1 -11 -13 -14 -11 -34 -19 -46
-17 -24 5 -51 -29 -32 -40 7 -5 8 -3 3 6 -6 9 -4 11 5 5 7 -5 11 -4 8 1 -4 5
4 10 16 10 13 1 23 -4 23 -12 0 -7 -4 -11 -8 -8 -12 7 -51 -15 -44 -26 3 -5 0
-12 -8 -17 -7 -4 -13 -17 -12 -27 0 -26 -16 -30 -40 -10 -14 11 -15 14 -4 11
9 -3 22 -1 30 4 9 5 4 7 -16 5 -18 -1 -29 -7 -27 -15 1 -7 -2 -10 -8 -6 -6 3
-7 11 -4 17 5 8 1 9 -10 5 -10 -4 -30 -10 -44 -13 -22 -5 -25 -4 -14 7 6 7 33
16 59 19 34 4 47 10 49 23 1 10 14 33 29 52 26 34 31 52 14 48 -19 -6 -8 7 19
21 15 8 28 15 29 16 1 0 0 -7 -1 -15z m31 0 c0 -8 -4 -12 -9 -9 -5 3 -6 10 -3
15 9 13 12 11 12 -6z m-967 1 c0 -2 -8 -10 -17 -17 -16 -13 -17 -12 -4 4 13
16 21 21 21 13z m1040 -3 c0 -1 -9 -7 -19 -12 -14 -8 -22 -7 -29 2 -9 10 -4
13 19 12 16 0 29 -1 29 -2z m-1139 -45 c-26 -27 -28 -16 -3 17 9 13 18 19 20
14 2 -4 -6 -18 -17 -31z m780 15 c-12 -20 -14 -14 -5 12 4 9 9 14 11 11 3 -2
0 -13 -6 -23z m110 -9 l-8 -29 -5 27 c-3 16 0 29 6 31 16 6 16 4 7 -29z m-632
12 c8 -10 8 -16 -2 -24 -10 -9 -13 -6 -13 13 0 29 0 29 15 11z m1158 0 c0 -8
-6 -12 -15 -9 -11 5 -11 7 0 14 7 5 13 9 14 9 0 0 1 -6 1 -14z m-1020 -28 c-3
-7 -5 -2 -5 12 0 14 2 19 5 13 2 -7 2 -19 0 -25z m447 16 c3 -9 6 -25 6 -36 0
-17 3 -18 15 -8 26 21 16 -3 -16 -40 -17 -19 -28 -29 -24 -22 3 6 1 12 -4 12
-6 0 -11 12 -10 28 l0 27 10 -24 c8 -19 12 -22 22 -12 8 8 9 14 1 19 -6 4 -13
22 -16 40 -5 33 5 44 16 16z m127 -7 c-17 -20 -71 -49 -71 -37 0 5 16 18 35
27 19 9 31 21 28 26 -3 6 -1 7 6 3 8 -5 9 -12 2 -19z m375 -22 c0 -13 -3 -22
-7 -19 -5 3 -8 16 -7 29 3 30 12 23 14 -10z m-1049 -30 c-2 -5 -12 -12 -21
-13 -15 -3 -16 -1 -6 17 6 12 8 27 5 34 -4 6 1 3 9 -8 9 -10 15 -24 13 -30z
m1108 25 c3 -6 -1 -7 -9 -4 -18 7 -21 14 -7 14 6 0 13 -4 16 -10z m-1201 -9
c3 -4 -3 -16 -13 -26 -20 -17 -24 -4 -8 23 10 14 14 15 21 3z m46 -1 c-8 -5
-11 -10 -7 -10 5 0 5 -5 2 -10 -4 -6 -11 -8 -16 -4 -12 7 8 34 25 34 6 0 4 -5
-4 -10z m141 -22 c-3 -21 -6 -26 -9 -15 -3 17 3 47 11 47 2 0 1 -15 -2 -32z
m695 -3 c0 -17 -3 -22 -15 -17 -11 4 -12 7 -2 10 11 4 11 6 0 13 -11 7 -11 9
-1 9 8 0 10 5 6 13 -4 6 -3 8 2 4 4 -4 9 -19 10 -32z m-969 7 c-10 -10 -15
-21 -12 -24 3 -2 -2 -5 -10 -5 -12 0 -10 6 7 24 25 27 39 32 15 5z m1209 -4
c1 -12 -3 -15 -14 -10 -12 4 -13 7 -3 10 11 4 11 6 0 14 -12 8 -12 9 0 6 8 -2
15 -11 17 -20z m-579 -17 c-1 -16 -9 -34 -19 -40 -15 -9 -15 -7 0 29 10 22 18
40 19 40 1 0 1 -13 0 -29z m-790 -2 c2 -16 -1 -19 -9 -11 -5 5 -7 15 -4 21 10
15 12 14 13 -10z m849 -34 c4 -21 3 -27 -4 -20 -6 6 -14 24 -18 40 -4 21 -3
27 4 20 6 -5 14 -23 18 -40z m-824 12 c-26 -28 -29 -45 -4 -26 15 13 16 12 3
-4 -10 -12 -17 -15 -24 -8 -7 7 -3 19 13 36 13 14 26 25 28 25 3 0 -4 -10 -16
-23z m316 5 c2 -6 -6 -10 -16 -9 -12 1 -18 6 -15 14 6 16 25 13 31 -5z m1007
9 c-3 -5 -1 -12 5 -16 6 -4 8 -10 5 -15 -3 -5 2 -13 11 -18 14 -8 15 -10 1
-15 -9 -3 -14 -14 -13 -24 3 -13 -2 -19 -14 -19 -10 0 -16 5 -13 10 4 5 -1 7
-10 3 -8 -3 -20 0 -26 7 -14 16 -4 27 17 19 10 -4 13 -2 8 5 -3 6 -1 14 5 18
7 4 9 3 5 -4 -8 -13 10 -26 24 -17 8 5 7 11 -1 21 -6 8 -8 14 -4 14 4 0 2 6
-4 13 -6 8 -8 17 -4 20 9 10 15 8 8 -2z m-269 -45 c-1 -14 -4 -28 -7 -31 -3
-3 -5 7 -4 22 1 16 -3 35 -9 43 -9 13 -9 13 5 3 9 -7 15 -24 15 -37z m149 26
c-3 -3 -11 0 -18 7 -9 10 -8 11 6 5 10 -3 15 -9 12 -12z m270 8 c3 -6 -1 -7
-9 -4 -18 7 -21 14 -7 14 6 0 13 -4 16 -10z m-1373 -14 c-4 -6 -7 -14 -7 -18
0 -19 -11 -14 -11 6 0 12 6 23 13 23 6 0 9 -5 5 -11z m98 -2 c0 -8 -19 -13
-24 -6 -3 5 1 9 9 9 8 0 15 -2 15 -3z m66 -28 c1 -7 -4 -13 -12 -13 -9 0 -11
4 -4 12 5 7 8 15 5 18 -3 4 -2 5 2 2 4 -3 8 -11 9 -19z m32 -14 c2 -15 0 -23
-4 -19 -5 4 -9 19 -10 33 -1 32 9 21 14 -14z m728 15 c0 -7 -9 -25 -20 -42
-12 -16 -21 -37 -21 -45 0 -8 -3 -19 -6 -25 -4 -5 -5 -18 -4 -28 2 -9 0 -15
-5 -12 -9 6 -8 24 3 43 5 6 4 12 -1 12 -15 0 -30 -23 -27 -42 2 -10 -2 -21 -7
-25 -7 -4 -8 -1 -3 7 5 8 3 11 -6 8 -8 -3 -14 -10 -14 -15 0 -6 -3 -15 -7 -19
-9 -8 -1 -24 13 -24 6 0 7 5 3 12 -4 7 -3 8 5 4 6 -4 9 -11 6 -16 -3 -5 3 -15
14 -22 19 -14 19 -14 -2 -28 -19 -12 -21 -11 -9 2 10 13 9 18 -3 28 -13 11
-19 9 -37 -6 -12 -11 -18 -13 -13 -5 6 11 4 13 -7 8 -22 -8 -17 22 7 39 13 10
14 14 5 14 -9 0 -8 5 6 16 18 14 18 15 -6 9 -14 -4 -20 -3 -14 2 6 4 10 16 9
25 -2 9 4 23 13 30 13 11 14 11 7 -2 -13 -22 -15 -42 -3 -38 5 2 8 6 6 9 -2 3
3 13 9 21 7 8 10 18 6 22 -13 13 -11 35 5 48 13 11 14 11 8 -1 -6 -9 -4 -12 5
-9 8 3 14 11 14 19 1 8 7 12 15 10 36 -9 45 -5 44 17 -1 12 1 20 5 17 3 -4 6
-12 7 -18z m-909 -26 c-13 -14 -23 -33 -20 -41 2 -9 0 -8 -7 3 -10 15 -14 16
-28 5 -15 -11 -15 -11 -5 2 6 8 12 20 13 25 1 6 4 12 7 15 4 3 3 0 -1 -7 -12
-21 11 -23 29 -3 10 11 15 20 11 20 -4 0 -4 5 -1 10 4 6 11 8 17 4 5 -4 0 -17
-15 -33z m824 22 c2 1 -5 -6 -16 -15 -24 -21 -42 -23 -42 -4 0 8 6 12 15 8 11
-4 14 -1 9 11 -5 14 -3 16 12 8 10 -6 20 -9 22 -8z m206 0 c0 -9 -4 -10 -14
-2 -7 6 -13 12 -13 14 0 1 6 2 13 2 8 0 14 -6 14 -14z m48 8 c3 -6 -3 -14 -13
-20 -14 -7 -19 -6 -19 4 0 7 7 11 15 7 10 -3 13 -1 8 6 -4 7 -5 12 -2 12 3 0
7 -4 11 -9z m547 -20 c2 -17 1 -28 -4 -25 -8 5 -12 54 -4 54 2 0 6 -13 8 -29z
m-979 -1 c-3 -11 -9 -20 -15 -20 -5 0 -4 9 2 20 6 11 12 20 14 20 2 0 2 -9 -1
-20z m352 11 c3 -5 2 -12 -3 -15 -5 -3 -9 1 -9 9 0 17 3 19 12 6z m-915 -7 c0
-8 -19 -13 -24 -6 -3 5 1 9 9 9 8 0 15 -2 15 -3z m615 -4 c3 -5 1 -10 -4 -10
-6 0 -11 5 -11 10 0 6 2 10 4 10 3 0 8 -4 11 -10z m562 -4 c0 -8 -6 -12 -15
-9 -11 5 -11 7 0 14 7 5 13 9 14 9 0 0 1 -6 1 -14z m-1054 -16 c3 -11 1 -18
-4 -14 -5 3 -9 12 -9 20 0 20 7 17 13 -6z m537 10 c0 -5 -4 -10 -10 -10 -5 0
-10 5 -10 10 0 6 5 10 10 10 6 0 10 -4 10 -10z m225 1 c3 -6 -16 -24 -41 -42
-26 -18 -43 -26 -38 -18 5 8 9 17 9 21 0 3 4 10 9 15 5 5 6 2 1 -6 -5 -9 -3
-12 6 -9 8 3 13 10 12 16 -1 5 5 9 15 8 9 0 16 5 15 12 -3 14 3 16 12 3z
m-1078 -19 c-20 -22 -48 -25 -40 -4 4 9 8 10 13 2 5 -8 11 -6 20 5 7 8 15 15
18 15 3 0 -2 -8 -11 -18z m149 -11 c-9 -10 -23 -18 -31 -18 -8 0 -12 3 -9 6 3
3 11 6 17 6 7 0 13 6 13 13 2 22 4 23 15 17 7 -5 5 -13 -5 -24z m1281 17 c10
-17 11 -98 2 -104 -5 -2 -6 5 -4 17 3 16 0 20 -13 15 -14 -5 -13 -3 2 9 14 11
16 15 5 15 -8 0 -10 3 -4 8 15 10 12 31 -5 42 -9 6 -10 10 -3 10 6 0 15 -6 20
-12z m-1168 -1 c-2 -1 -13 -10 -25 -20 -17 -14 -21 -14 -21 -2 0 8 4 12 8 9 4
-2 10 0 14 6 3 5 11 10 17 10 6 0 9 -1 7 -3z m846 -17 c-3 -4 0 -10 7 -12 8
-3 7 -6 -3 -10 -11 -4 -15 1 -15 17 0 13 4 21 8 19 5 -3 6 -9 3 -14z m-246 -6
c5 -5 -60 -134 -68 -134 -3 0 -16 3 -28 6 -21 6 -23 12 -23 68 0 35 3 66 7 69
6 7 103 -2 112 -9z m528 4 c11 -19 13 -39 2 -32 -5 3 -7 9 -4 14 3 5 -3 13
-12 19 -10 6 -13 11 -6 11 6 0 15 -6 20 -12z m-42 -7 c-3 -5 4 -16 15 -24 11
-7 17 -17 13 -20 -3 -4 0 -7 8 -7 8 -1 2 -7 -13 -15 -18 -10 -26 -21 -23 -35
2 -12 -4 -24 -15 -30 -29 -16 -38 -11 -10 5 15 9 19 14 10 15 -13 0 -13 1 0
10 13 9 13 10 0 10 -13 0 -13 2 0 10 19 12 21 60 3 67 -12 5 -12 7 -1 14 17
11 20 11 13 0z m160 1 c-17 -12 -17 -35 0 -29 26 11 16 -2 -15 -18 -37 -19
-54 -19 -20 0 15 9 19 14 10 15 -13 0 -13 1 0 10 13 9 13 10 0 10 -13 0 -13 1
0 10 18 12 40 14 25 2z m157 -7 c0 -5 -5 -10 -11 -11 -8 -2 -7 -1 0 3 8 4 7 8
-2 15 -11 8 -11 9 -1 6 8 -2 14 -8 14 -13z m-1662 2 c0 -2 -9 -12 -19 -21 -14
-13 -21 -14 -27 -5 -4 7 -3 10 3 6 6 -4 16 0 23 8 12 14 20 19 20 12z m200 -3
c0 -8 -19 -13 -24 -6 -3 5 1 9 9 9 8 0 15 -2 15 -3z m60 -4 c0 -5 -4 -10 -10
-10 -5 0 -10 5 -10 10 0 6 5 10 10 10 6 0 10 -4 10 -10z m1010 -10 c-8 -5 -10
-10 -4 -10 6 0 11 -7 11 -16 0 -15 -2 -14 -13 1 -14 19 -10 35 9 35 7 0 6 -4
-3 -10z m339 -16 c-13 -7 -18 -13 -10 -14 8 0 12 -3 8 -6 -3 -3 -13 -1 -23 4
-16 9 -15 10 5 17 11 3 19 11 16 16 -3 5 1 6 11 2 14 -5 13 -8 -7 -19z m-576
-7 c-13 -20 -12 -39 1 -34 14 6 16 -57 2 -70 -5 -4 -6 -3 -2 4 4 8 -2 11 -19
10 -14 -1 -24 -7 -23 -12 2 -6 9 -9 16 -9 8 1 10 -2 3 -10 -5 -6 -10 -15 -11
-21 -1 -5 -4 -12 -7 -15 -4 -3 -2 1 2 9 6 11 4 13 -8 8 -12 -4 -15 -1 -12 14
3 15 0 19 -10 15 -8 -3 -14 -2 -14 2 1 4 0 9 -1 12 -8 21 -6 37 5 37 8 0 12
-9 10 -19 -3 -12 1 -18 8 -15 7 2 12 22 12 45 0 22 3 43 6 46 3 4 5 -12 4 -34
-1 -26 2 -39 9 -37 6 2 12 18 12 35 1 18 3 35 4 40 1 4 2 11 1 15 -1 5 3 6 9
2 6 -3 7 -12 3 -18z m-908 3 c-4 -6 -11 -8 -16 -5 -5 3 -6 -1 -3 -9 3 -9 10
-13 15 -10 5 3 8 2 7 -3 -2 -4 2 -9 7 -9 6 -1 9 2 7 8 -1 5 2 7 8 3 8 -5 7
-11 -1 -21 -8 -10 -15 -11 -24 -4 -8 7 -17 4 -30 -10 -10 -11 -23 -20 -29 -20
-6 0 -4 5 4 10 13 9 7 14 -12 11 -15 -2 -8 13 19 41 25 26 62 40 48 18z m602
-5 c0 -8 -4 -12 -9 -9 -4 3 -8 9 -8 15 0 5 4 9 8 9 5 0 9 -7 9 -15z m-752 -36
c-1 -15 -7 -34 -14 -43 -14 -17 -31 -13 -31 7 0 7 4 6 10 -3 5 -8 10 -13 11
-10 5 28 4 52 -3 56 -11 7 -2 21 15 21 8 0 13 -11 12 -28z m705 -13 c0 -2 -7
-7 -16 -10 -8 -3 -12 -2 -9 4 6 10 25 14 25 6z m6 -58 c-1 -23 -8 -44 -14 -46
-7 -2 -10 -8 -7 -13 4 -5 -1 -6 -11 -2 -14 5 -15 3 -5 -16 10 -18 9 -22 -6
-28 -10 -3 -21 -8 -25 -10 -14 -8 -8 15 8 31 8 9 12 16 7 16 -4 0 3 9 17 20
21 17 21 19 5 14 -11 -3 -16 -2 -10 3 18 14 17 36 0 29 -10 -4 -15 -2 -13 6 2
6 13 13 23 14 11 2 21 8 23 13 7 21 10 10 8 -31z m-588 16 c-1 -5 -9 -9 -16
-10 -10 -2 -11 1 -1 12 12 14 24 13 17 -2z m651 -10 c22 -16 25 -16 52 0 32
19 33 16 15 -33 l-12 -35 -17 25 c-21 29 -22 29 -40 5 -18 -25 -37 -12 -37 25
0 33 6 35 39 13z m340 13 c-2 -1 -13 -9 -24 -17 -19 -14 -19 -14 -6 3 7 9 18
17 24 17 6 0 8 -1 6 -3z m-1115 -26 c-7 -8 -54 -9 -49 -1 2 3 15 6 29 6 14 0
23 -2 20 -5z m145 -17 c-6 -7 -15 -11 -21 -8 -5 3 -4 12 3 20 6 7 15 11 21 8
5 -3 4 -12 -3 -20z m1280 23 c-2 -1 -13 -9 -24 -17 -19 -14 -19 -14 -6 3 7 9
18 17 24 17 6 0 8 -1 6 -3z m-516 -70 c-4 -7 1 -8 13 -4 14 6 13 2 -5 -12 -14
-10 -31 -16 -40 -13 -9 3 -12 1 -7 -6 3 -6 3 -13 -2 -16 -4 -2 -8 6 -8 19 0
20 3 22 18 14 10 -5 18 -7 18 -4 0 13 -6 20 -14 17 -5 -2 -4 3 2 11 9 10 9 17
-1 27 -6 8 -2 6 10 -4 13 -10 20 -23 16 -29z m72 12 c-3 -15 0 -19 10 -15 9 3
12 -1 10 -15 -3 -14 0 -19 9 -16 15 6 16 -17 1 -30 -4 -4 -5 -3 -2 3 7 12 -19
28 -32 20 -6 -4 -7 59 -2 72 5 11 9 -2 6 -19z m-191 -20 c-22 -24 -34 -24 -34
0 0 11 8 21 18 24 28 6 35 -4 16 -24z m262 6 c1 -8 -1 -17 -5 -19 -4 -3 -7 6
-7 19 0 25 8 25 12 0z m-669 -7 c-3 -8 -6 -5 -6 6 -1 11 2 17 5 13 3 -3 4 -12
1 -19z m146 -13 c-9 -19 -18 -33 -21 -31 -4 5 26 66 33 66 3 0 -3 -16 -12 -35z
m100 20 c-3 -9 -8 -14 -10 -11 -3 3 -2 9 2 15 9 16 15 13 8 -4z m107 -17 c8
-13 13 -26 12 -29 -2 -10 37 2 44 12 3 5 13 9 24 9 13 0 17 -5 13 -20 -4 -16
-11 -19 -32 -13 l-26 6 23 -26 c24 -25 24 -25 4 -36 -17 -9 -22 -8 -27 10 -9
27 -41 59 -60 59 -16 0 -19 9 -9 34 8 22 17 20 34 -6z m560 7 c-10 -12 -10
-15 1 -15 11 0 11 -2 -1 -10 -8 -5 -19 -10 -25 -10 -5 0 -3 5 5 10 8 5 11 10
6 10 -9 0 12 30 21 30 3 0 0 -7 -7 -15z m-1146 -4 c3 -5 -1 -14 -8 -20 -12
-10 -14 -9 -11 6 2 10 4 19 4 21 2 5 10 2 15 -7z m952 -16 c1 -7 -8 -22 -19
-32 -22 -18 -22 -18 -6 2 9 11 15 28 14 38 -2 11 -1 16 3 13 3 -4 7 -13 8 -21z
m239 5 c-3 -5 -12 -10 -18 -10 -7 0 -6 4 3 10 19 12 23 12 15 0z m-1355 -6 c0
-8 -19 -13 -24 -6 -3 5 1 9 9 9 8 0 15 -2 15 -3z m937 -9 c0 -8 -4 -12 -9 -9
-5 3 -6 10 -3 15 9 13 12 11 12 -6z m29 0 c-1 -8 -5 -17 -8 -21 -5 -4 -4 16 1
34 3 9 9 -1 7 -13z m-330 -18 c20 7 18 -21 -3 -38 -12 -10 -14 -10 -9 -1 4 7
1 14 -8 18 -9 3 -12 12 -9 22 4 9 8 11 10 5 3 -7 11 -9 19 -6z m109 -33 c0
-12 -6 -18 -17 -18 -10 1 -18 -3 -18 -9 0 -6 -2 -8 -5 -5 -3 3 -1 17 5 32 11
30 35 30 35 0z m301 1 c-1 -13 -5 -27 -9 -31 -3 -4 -4 3 -2 16 3 17 1 21 -13
16 -14 -5 -13 -3 2 9 25 19 23 19 22 -10z m-872 7 c3 -5 -1 -9 -9 -9 -8 0 -12
4 -9 9 3 4 7 8 9 8 2 0 6 -4 9 -8z m250 -48 c10 -31 12 -52 6 -63 -8 -14 -9
-13 -9 4 0 11 -2 29 -5 40 -2 11 -5 23 -5 28 -1 4 -9 7 -18 8 -11 0 -13 3 -5
6 6 2 10 9 6 14 -3 5 -1 9 4 9 6 0 17 -21 26 -46z m543 22 c0 -8 -6 -12 -12
-10 -6 3 -12 11 -12 18 0 8 6 12 12 10 6 -3 12 -11 12 -18z m-296 -39 c-8 -8
-11 -4 -11 14 0 33 14 47 18 19 2 -12 -1 -27 -7 -33z m425 44 c-4 -5 -1 -11 6
-13 8 -3 6 -6 -4 -10 -11 -5 -15 -2 -13 10 5 23 4 22 11 22 3 0 3 -4 0 -9z
m-716 -21 c13 -13 15 -20 7 -20 -14 0 -37 20 -37 32 0 13 9 9 30 -12z m260
-11 c0 -11 -50 -32 -58 -24 -3 3 -1 5 4 5 6 0 19 7 30 16 13 11 14 14 3 11 -9
-3 -16 1 -16 8 0 10 5 11 19 4 10 -5 18 -14 18 -20z m377 16 c0 -8 -4 -12 -9
-9 -5 3 -6 10 -3 15 9 13 12 11 12 -6z m-101 -20 c-1 -8 -5 -17 -8 -21 -5 -4
-4 16 1 34 3 9 9 -1 7 -13z m-46 -2 c0 -1 -8 -7 -18 -12 -13 -7 -19 -6 -19 2
0 7 9 13 19 13 10 0 18 -1 18 -3z m114 -15 c-5 -8 -2 -9 12 -4 10 4 15 4 11 0
-4 -4 0 -12 9 -19 14 -10 13 -13 -11 -29 -17 -11 -24 -13 -19 -5 14 23 13 41
-1 35 -8 -3 -12 2 -10 12 5 23 4 22 11 22 3 0 2 -5 -2 -12z m-315 -25 c8 6 6
0 -3 -15 -13 -20 -14 -27 -4 -31 7 -2 10 -8 6 -12 -4 -4 -15 -5 -24 -1 -14 5
-14 9 -3 22 11 13 10 17 -4 25 -9 6 -17 15 -17 21 0 6 8 4 18 -5 15 -13 21
-14 31 -4z m72 1 c-34 -15 -48 -13 -36 5 3 6 21 11 38 10 l32 -1 -34 -14z m63
-5 c-10 -12 -18 -24 -17 -28 1 -3 -1 -8 -4 -11 -4 -3 -2 1 2 9 6 11 4 13 -11
7 -12 -4 -7 3 11 18 37 31 44 33 19 5z m-230 -4 c-4 -8 -8 -15 -10 -15 -2 0
-4 7 -4 15 0 8 4 15 10 15 5 0 7 -7 4 -15z m22 -56 l-16 -23 0 35 c0 43 11 58
23 30 7 -13 4 -26 -7 -42z m282 44 c-13 -16 -22 -17 -12 -1 5 8 2 9 -10 5 -9
-4 -15 -3 -11 2 3 6 14 9 25 8 14 -1 16 -4 8 -14z m48 2 c-1 -8 -6 -18 -11
-22 -4 -4 -5 -2 -1 5 4 7 2 12 -6 12 -9 0 -9 3 2 10 19 12 19 13 16 -5z m139
5 c-3 -5 -12 -10 -18 -10 -7 0 -6 4 3 10 19 12 23 12 15 0z m-862 -34 c-10
-13 -20 -22 -22 -20 -4 4 29 44 36 44 2 0 -4 -11 -14 -24z m851 2 c-2 -3 1 -8
8 -10 7 -3 5 -7 -6 -11 -9 -4 -15 -3 -12 2 7 11 -22 23 -36 14 -6 -3 -8 -1 -5
4 4 6 18 10 31 9 13 0 22 -4 20 -8z m-99 -14 c-38 -29 -53 -35 -51 -19 1 8 6
18 11 22 4 4 5 2 1 -4 -10 -17 4 -16 28 2 11 8 22 15 25 15 3 0 -3 -8 -14 -16z
m-230 -33 c3 -5 2 -12 -3 -15 -5 -3 -9 1 -9 9 0 17 3 19 12 6z m-61 -7 c27
-10 9 -20 -28 -16 -20 2 -33 8 -30 13 6 10 35 12 58 3z m-344 -35 c-5 -9 -7
-19 -4 -22 3 -3 -2 -4 -11 -3 -17 2 -36 26 -30 36 2 3 15 6 29 6 20 0 23 -3
16 -17z m106 5 c-3 -8 -2 -12 4 -9 6 3 10 2 10 -4 0 -5 9 -8 20 -6 18 3 19 1
9 -17 -10 -19 -13 -19 -20 -5 -6 9 -18 14 -30 12 -14 -3 -19 0 -16 9 3 8 0 19
-6 25 -8 8 -5 11 12 11 17 0 22 -4 17 -16z m-32 -19 c-4 -8 -11 -15 -16 -15
-6 0 -5 6 2 15 7 8 14 15 16 15 2 0 1 -7 -2 -15z m605 -2 c-12 -15 -12 -16 6
-10 l20 7 -20 -16 c-11 -8 -19 -20 -18 -25 2 -5 -15 -20 -36 -35 -30 -20 -44
-23 -58 -16 -11 7 -25 7 -35 1 -19 -10 -51 -1 -42 12 3 5 24 19 46 30 22 11
37 15 33 9 -4 -7 -1 -11 6 -9 34 4 42 0 29 -16 -7 -8 -17 -15 -22 -15 -6 0 -4
7 3 17 13 15 12 15 -8 2 -18 -11 -20 -15 -8 -22 21 -11 64 20 60 43 -2 12 6
27 23 39 33 25 39 26 21 4z m132 4 c-6 -8 -9 -16 -6 -19 3 -3 -1 -11 -9 -17
-11 -10 -14 -9 -12 2 2 16 25 47 33 47 3 0 0 -6 -6 -13z m16 -41 c0 -8 -5 -14
-11 -13 -5 1 -10 -3 -11 -10 0 -6 -3 -14 -7 -18 -12 -12 -2 23 11 39 16 20 18
20 18 2z m64 1 c-6 -8 -9 -16 -6 -18 2 -3 -6 -5 -20 -5 -13 0 -21 4 -19 8 3 5
9 6 14 3 4 -3 13 2 20 10 7 8 15 15 17 15 3 0 0 -6 -6 -13z m-545 -30 c-2 -18
-16 -37 -26 -37 -7 0 -7 21 0 40 1 3 2 8 1 12 0 4 5 5 13 2 8 -3 13 -11 12
-17z m-116 -1 c0 -3 -4 -8 -10 -11 -5 -3 -10 -1 -10 4 0 6 5 11 10 11 6 0 10
-2 10 -4z m190 -31 c-7 -8 -17 -15 -23 -15 -6 0 -2 7 9 15 25 19 30 19 14 0z"/>
<path d="M767 1279 c7 -7 15 -10 18 -7 3 3 -2 9 -12 12 -14 6 -15 5 -6 -5z"/>
<path d="M931 1134 c0 -11 3 -14 6 -6 3 7 2 16 -1 19 -3 4 -6 -2 -5 -13z"/>
<path d="M817 1103 c-3 -3 -3 -11 0 -19 3 -9 -1 -14 -12 -14 -9 0 -13 -5 -10
-10 4 -6 11 -8 16 -5 11 8 12 -11 0 -51 -5 -19 -5 -37 0 -45 8 -12 9 -11 8 1
-5 29 13 100 23 94 6 -4 8 2 3 16 -6 18 -4 22 8 17 10 -4 14 -1 11 6 -5 13
-38 20 -47 10z"/>
<path d="M768 939 c-10 -10 -18 -26 -18 -34 0 -9 -8 -18 -17 -21 -10 -3 -25
-8 -33 -12 -8 -3 -19 -4 -23 -3 -5 1 -6 -3 -2 -9 4 -7 12 -7 26 0 11 6 24 8
29 5 6 -3 15 5 22 19 6 14 15 26 20 26 5 0 6 -4 3 -10 -9 -15 2 -12 19 6 9 8
16 21 16 27 0 7 -5 6 -11 -3 -9 -12 -10 -11 -6 8 6 26 -2 27 -25 1z"/>
<path d="M715 930 c-3 -5 1 -10 9 -10 9 0 16 5 16 10 0 6 -4 10 -9 10 -6 0
-13 -4 -16 -10z"/>
<path d="M767 861 c-4 -17 -3 -21 5 -13 5 5 8 16 6 23 -3 8 -7 3 -11 -10z"/>
<path d="M806 798 c-4 -23 -12 -48 -18 -55 -8 -10 -7 -13 4 -13 9 0 17 19 24
55 5 30 7 55 3 55 -3 0 -9 -19 -13 -42z"/>
<path d="M741 778 c-14 -39 -23 -116 -13 -122 6 -3 9 0 9 7 -1 6 3 33 7 60 8
46 19 59 30 35 3 -7 4 -2 3 11 -3 33 -25 38 -36 9z"/>
<path d="M686 685 c4 -8 8 -15 10 -15 2 0 4 7 4 15 0 8 -4 15 -10 15 -5 0 -7
-7 -4 -15z"/>
<path d="M702 630 c0 -19 2 -27 5 -17 2 9 2 25 0 35 -3 9 -5 1 -5 -18z"/>
<path d="M672 610 c0 -19 2 -27 5 -17 2 9 2 25 0 35 -3 9 -5 1 -5 -18z"/>
<path d="M720 619 c0 -5 5 -7 10 -4 6 3 10 8 10 11 0 2 -4 4 -10 4 -5 0 -10
-5 -10 -11z"/>
<path d="M1270 1029 c0 -5 5 -7 10 -4 6 3 10 8 10 11 0 2 -4 4 -10 4 -5 0 -10
-5 -10 -11z"/>
<path d="M1224 932 c2 -9 -4 -23 -13 -30 -13 -10 -11 -10 12 0 17 7 23 14 16
19 -8 5 -8 8 2 11 10 3 9 6 -3 10 -11 5 -15 2 -14 -10z"/>
<path d="M1547 829 c7 -7 15 -10 18 -7 3 3 -2 9 -12 12 -14 6 -15 5 -6 -5z"/>
<path d="M1204 832 c7 -12 -20 -36 -33 -28 -10 7 -9 -19 2 -30 4 -4 2 -13 -4
-21 -17 -20 0 -16 29 8 l27 21 -25 -6 c-14 -3 -19 -3 -12 0 6 3 10 10 7 15 -4
5 0 6 8 3 8 -3 19 2 26 10 10 12 8 17 -10 26 -12 7 -19 8 -15 2z"/>
<path d="M1155 720 c-3 -6 1 -7 9 -4 18 7 21 14 7 14 -6 0 -13 -4 -16 -10z"/>
<path d="M1265 670 c-3 -6 1 -7 9 -4 18 7 21 14 7 14 -6 0 -13 -4 -16 -10z"/>
<path d="M330 725 c-9 -11 -10 -19 -3 -26 7 -7 15 -4 24 7 12 15 12 17 0 9
-11 -6 -13 -4 -8 8 8 21 3 22 -13 2z"/>
<path d="M1175 210 c-3 -5 -2 -10 4 -10 5 0 13 5 16 10 3 6 2 10 -4 10 -5 0
-13 -4 -16 -10z"/>
<path d="M1060 159 c-17 -13 -18 -17 -5 -10 33 17 51 31 40 31 -5 0 -21 -10
-35 -21z"/>
<path d="M852 2325 c0 -16 2 -22 5 -12 2 9 2 23 0 30 -3 6 -5 -1 -5 -18z"/>
<path d="M1068 2343 c6 -3 10 -9 6 -14 -3 -5 -1 -9 4 -9 21 0 19 26 -2 27 -11
0 -15 -1 -8 -4z"/>
<path d="M901 2298 c-1 -16 4 -28 9 -28 12 0 12 8 0 35 -8 18 -9 17 -9 -7z"/>
<path d="M950 2301 c0 -6 5 -13 10 -16 6 -3 10 1 10 9 0 9 -4 16 -10 16 -5 0
-10 -4 -10 -9z"/>
<path d="M1000 2300 c-9 -6 -10 -10 -3 -10 6 0 15 5 18 10 8 12 4 12 -15 0z"/>
<path d="M1280 2180 c0 -5 5 -10 11 -10 5 0 7 5 4 10 -3 6 -8 10 -11 10 -2 0
-4 -4 -4 -10z"/>
<path d="M1280 2148 c0 -7 4 -19 9 -27 6 -9 9 -5 9 13 0 14 -4 26 -9 26 -5 0
-9 -6 -9 -12z"/>
<path d="M1314 2147 c3 -10 6 -21 6 -23 0 -2 9 -4 20 -4 11 0 20 5 20 11 0 5
-5 7 -12 3 -6 -4 -18 2 -26 12 -14 18 -14 18 -8 1z"/>
<path d="M1385 2130 c-3 -5 -1 -10 4 -10 6 0 11 5 11 10 0 6 -2 10 -4 10 -3 0
-8 -4 -11 -10z"/>
<path d="M1400 2046 c0 -2 7 -7 16 -10 8 -3 12 -2 9 4 -6 10 -25 14 -25 6z"/>
<path d="M1322 2014 c10 -10 20 -15 24 -12 3 4 -5 12 -18 18 -22 12 -22 12 -6
-6z"/>
<path d="M1370 1991 c0 -6 4 -13 10 -16 6 -3 7 1 4 9 -7 18 -14 21 -14 7z"/>
<path d="M963 1968 c-18 -13 -33 -31 -33 -40 0 -10 -5 -15 -13 -12 -9 3 -13
-5 -12 -27 0 -40 14 -46 43 -19 27 25 35 25 27 0 -7 -22 19 -29 29 -7 5 10 7
10 12 0 7 -15 54 -17 54 -3 0 6 5 10 11 10 5 0 7 -5 3 -11 -3 -6 0 -15 7 -20
19 -12 32 -11 24 1 -3 6 -2 10 4 10 5 0 11 -4 13 -10 2 -6 18 -3 41 7 26 12
37 23 36 38 0 19 -1 20 -8 0 -7 -18 -9 -17 -27 10 -31 49 -64 76 -85 70 -13
-4 -19 -2 -19 9 0 25 -69 21 -107 -6z m72 2 c-3 -5 -14 -10 -23 -10 -15 0 -15
2 -2 10 20 13 33 13 25 0z m33 -41 c26 -8 31 -14 21 -20 -12 -8 -12 -11 1 -20
13 -9 12 -10 -3 -5 -11 3 -30 9 -43 12 -13 3 -24 10 -24 15 0 12 -37 11 -45
-1 -3 -5 -11 -10 -17 -10 -6 0 -4 8 5 18 20 22 60 26 105 11z"/>
<path d="M1425 1981 c-3 -5 -1 -12 5 -16 5 -3 10 1 10 9 0 18 -6 21 -15 7z"/>
<path d="M841 1838 c-13 -35 -23 -84 -17 -77 8 8 35 99 30 99 -3 0 -8 -10 -13
-22z"/>
<path d="M802 1725 c-18 -38 -15 -49 18 -73 60 -44 144 -15 96 34 -8 7 -16 10
-18 5 -3 -10 -28 -14 -67 -12 -21 1 -23 4 -18 36 7 42 4 44 -11 10z"/>
<path d="M900 1730 c0 -5 5 -10 10 -10 6 0 10 5 10 10 0 6 -4 10 -10 10 -5 0
-10 -4 -10 -10z"/>
<path d="M753 1567 c2 -6 12 -14 22 -16 10 -2 25 -10 33 -18 18 -17 90 -12
102 7 5 8 20 11 39 8 18 -3 31 0 31 6 0 7 -22 11 -52 11 -29 0 -81 3 -116 7
-49 6 -63 5 -59 -5z m87 -27 c0 -5 -2 -10 -4 -10 -3 0 -8 5 -11 10 -3 6 -1 10
4 10 6 0 11 -4 11 -10z m35 0 c-3 -5 -11 -10 -16 -10 -6 0 -7 5 -4 10 3 6 11
10 16 10 6 0 7 -4 4 -10z"/>
<path d="M1670 1576 c0 -2 24 -19 52 -36 29 -18 47 -26 41 -19 -13 16 -93 63
-93 55z"/>
<path d="M430 1546 c0 -2 11 -6 25 -8 14 -3 25 -1 25 3 0 5 -11 9 -25 9 -14 0
-25 -2 -25 -4z"/>
<path d="M278 1489 c-21 -11 -38 -22 -38 -24 0 -5 79 32 89 41 12 11 -18 1
-51 -17z"/>
<path d="M1810 1487 c0 -2 19 -19 43 -37 37 -29 39 -30 17 -6 -23 25 -60 52
-60 43z"/>
<path d="M343 1450 c-46 -27 -41 -34 5 -8 46 27 48 28 36 28 -5 0 -24 -9 -41
-20z"/>
<path d="M520 1450 c0 -5 5 -10 10 -10 6 0 10 5 10 10 0 6 -4 10 -10 10 -5 0
-10 -4 -10 -10z"/>
<path d="M427 1434 c-16 -9 -27 -18 -24 -20 3 -3 20 4 38 15 39 24 28 28 -14
5z"/>
<path d="M1807 1399 c7 -7 15 -10 18 -7 3 3 -2 9 -12 12 -14 6 -15 5 -6 -5z"/>
<path d="M468 1393 c7 -3 16 -2 19 1 4 3 -2 6 -13 5 -11 0 -14 -3 -6 -6z"/>
<path d="M1880 1380 c0 -5 5 -10 11 -10 5 0 7 5 4 10 -3 6 -8 10 -11 10 -2 0
-4 -4 -4 -10z"/>
<path d="M251 1300 c-23 -17 -39 -35 -36 -40 3 -6 8 -10 11 -10 3 0 3 4 -1 10
-3 5 12 21 35 36 36 24 47 34 37 34 -2 0 -23 -14 -46 -30z"/>
<path d="M370 1321 c0 -5 -12 -14 -27 -20 -16 -7 -44 -25 -63 -42 -32 -28 -31
-28 18 5 29 19 61 38 72 41 21 7 28 25 10 25 -5 0 -10 -4 -10 -9z"/>
<path d="M390 1280 c-9 -6 -10 -10 -3 -10 6 0 15 5 18 10 8 12 4 12 -15 0z"/>
<path d="M520 1279 c0 -5 5 -7 10 -4 6 3 10 8 10 11 0 2 -4 4 -10 4 -5 0 -10
-5 -10 -11z"/>
<path d="M344 1254 c-18 -14 -18 -15 4 -4 12 6 22 13 22 15 0 8 -5 6 -26 -11z"/>
<path d="M417 1249 c-22 -11 -37 -22 -35 -24 4 -5 88 35 88 41 0 8 -16 3 -53
-17z"/>
<path d="M1915 1250 c-3 -5 -1 -10 4 -10 6 0 11 5 11 10 0 6 -2 10 -4 10 -3 0
-8 -4 -11 -10z"/>
<path d="M235 1145 c-22 -14 -36 -25 -31 -25 10 0 76 40 76 46 0 6 -2 5 -45
-21z"/>
<path d="M1750 725 c-14 -8 -20 -14 -15 -14 6 0 21 6 35 14 14 8 21 14 15 14
-5 0 -21 -6 -35 -14z"/>
<path d="M1911 711 c-12 -8 -9 -11 13 -17 l28 -7 -33 -15 c-19 -8 -47 -16 -64
-17 -16 -1 -39 -6 -50 -9 -11 -4 -4 2 15 13 40 23 23 28 -20 6 -22 -11 -35
-12 -56 -5 -15 6 -29 8 -32 5 -3 -3 1 -5 9 -5 12 0 11 -2 -1 -11 -12 -9 -12
-10 4 -5 10 4 28 4 39 0 19 -6 17 -8 -14 -25 -46 -25 -32 -24 26 2 25 11 49
19 51 16 2 -2 -26 -17 -62 -32 -52 -22 -62 -30 -50 -37 20 -11 65 0 46 12 -8
5 -7 9 5 14 24 9 32 7 15 -4 -13 -9 -13 -10 0 -10 13 0 13 -1 0 -10 -11 -8 -7
-9 15 -5 27 5 26 3 -10 -15 -37 -19 -38 -20 -10 -15 25 4 22 0 -20 -23 -82
-45 -126 -74 -121 -80 3 -3 12 1 21 8 9 7 18 10 21 7 3 -3 -8 -13 -26 -22 -18
-9 -29 -19 -26 -23 4 -3 12 0 18 6 7 7 17 12 23 12 5 0 -1 -9 -15 -20 -27 -21
-45 -26 -35 -10 9 15 -2 12 -32 -7 -15 -10 -24 -12 -19 -5 4 6 21 19 38 28 16
8 28 18 25 20 -6 6 -97 -48 -97 -58 0 -4 8 -5 18 -2 9 4 4 -5 -13 -20 -22 -19
-25 -24 -10 -20 13 5 8 -4 -15 -24 -19 -17 -29 -31 -21 -32 11 0 11 -3 0 -17
-12 -14 -10 -14 16 1 28 17 27 16 -7 -18 -21 -20 -34 -36 -29 -36 4 0 16 9 26
20 10 12 25 18 33 15 7 -2 40 13 73 35 60 42 73 54 42 43 -16 -6 -15 -3 2 17
13 16 -1 9 -43 -19 -35 -24 -66 -41 -69 -38 -5 5 140 107 153 107 3 0 1 -7 -6
-15 -11 -13 -10 -14 6 -9 18 7 18 6 -1 -17 l-20 -24 22 18 c12 11 19 25 16 33
-3 8 -1 14 5 14 6 0 12 -5 14 -11 2 -7 9 -5 17 5 12 14 11 16 -5 10 -18 -5
-18 -5 -1 9 12 10 14 16 6 19 -6 2 16 19 50 37 33 17 61 34 61 37 0 2 -14 -3
-31 -11 -17 -9 -33 -14 -36 -11 -6 5 118 65 165 80 30 10 28 21 -5 23 -15 0
-21 -2 -14 -7 9 -5 8 -9 -4 -14 -23 -8 -27 -8 -21 3 7 10 -61 8 -71 -3 -3 -3
0 -6 8 -6 11 0 11 -2 -1 -10 -8 -5 -22 -10 -30 -10 -13 0 -13 1 0 10 13 9 13
10 0 11 -8 0 4 9 28 19 23 11 50 16 59 13 10 -4 14 -2 10 4 -8 12 60 46 76 37
7 -4 9 -4 5 1 -4 4 0 13 9 20 13 9 13 14 3 20 -9 6 -11 4 -5 -5 6 -10 4 -12
-9 -7 -9 4 -41 -4 -72 -18 -31 -14 -62 -25 -68 -24 -6 0 7 9 29 19 22 10 34
19 27 19 -7 1 -27 -6 -43 -15 -17 -8 -36 -13 -42 -11 -6 2 20 16 58 30 94 37
103 43 75 52 -18 6 -20 9 -9 16 12 7 11 9 -1 9 -8 0 -22 -4 -29 -9z m49 -86
c-58 -33 -129 -55 -152 -45 -13 5 -17 9 -8 10 13 0 13 1 0 10 -20 13 -10 13
27 0 25 -9 39 -7 84 14 60 27 88 33 49 11z m-130 -121 c-41 -20 -69 -38 -62
-41 9 -3 2 -12 -18 -25 -18 -10 -34 -17 -37 -14 -3 2 8 11 24 20 15 8 24 15
20 16 -5 0 -17 -5 -29 -11 -11 -6 -22 -8 -25 -5 -3 2 17 16 44 30 26 14 42 25
35 26 -7 0 -31 -12 -53 -26 -23 -14 -43 -23 -46 -20 -5 5 96 66 110 66 5 0 5
-4 2 -10 -9 -14 -3 -13 46 10 77 34 67 21 -11 -16z m-131 -71 c-4 -22 3 -32
16 -27 23 9 18 -4 -6 -17 -15 -8 -19 -8 -15 0 12 20 -2 12 -80 -41 -111 -77
-123 -84 -84 -49 20 19 28 31 20 31 -9 1 -3 10 15 25 40 33 58 31 20 -2 l-30
-26 30 18 c74 45 107 69 96 73 -6 2 -9 8 -5 13 6 11 24 12 23 2z m-74 -131
c-35 -29 -87 -63 -91 -59 -6 6 76 67 90 67 6 0 6 -3 1 -8z"/>
<path d="M463 643 c-46 -56 -68 -92 -29 -49 15 17 26 23 26 15 0 -8 8 -4 20
11 10 14 24 25 31 25 7 0 13 8 15 18 2 15 0 16 -14 5 -13 -11 -15 -11 -9 5 10
26 4 21 -40 -30z m37 14 c0 -2 -10 -12 -21 -23 -22 -19 -22 -19 -8 4 12 19 29
30 29 19z"/>
<path d="M1660 680 c-8 -5 -10 -10 -5 -10 6 0 17 5 25 10 8 5 11 10 5 10 -5 0
-17 -5 -25 -10z"/>
<path d="M1945 661 c-22 -11 -33 -20 -25 -20 8 0 31 8 50 19 45 25 27 25 -25
1z"/>
<path d="M1650 590 c-8 -5 -10 -10 -5 -10 6 0 17 5 25 10 8 5 11 10 5 10 -5 0
-17 -5 -25 -10z"/>
<path d="M428 541 c-7 -9 -8 -13 -4 -9 5 5 16 -1 24 -13 13 -18 12 -23 -6 -42
-18 -21 -20 -53 -2 -42 10 6 42 -43 35 -55 -3 -5 7 -22 22 -38 15 -15 27 -26
26 -24 -1 3 7 16 17 30 23 29 25 45 7 61 -11 8 -18 6 -31 -8 -15 -16 -15 -19
-1 -31 8 -7 15 -18 15 -24 0 -6 -7 -3 -14 7 -11 14 -15 15 -20 5 -3 -7 -3 0
-1 16 2 16 11 36 19 45 20 22 2 58 -20 40 -8 -6 -14 -16 -14 -21 0 -6 6 -6 14
1 11 9 16 9 22 0 5 -8 3 -9 -6 -4 -8 5 -11 4 -6 -3 3 -6 -1 -9 -11 -7 -10 2
-22 4 -26 4 -5 1 -5 7 0 14 4 6 8 23 9 37 2 42 4 46 14 30 6 -9 6 -18 0 -24
-15 -15 -12 -30 3 -17 8 6 17 8 20 4 4 -3 7 -2 7 3 0 6 -5 15 -12 22 -9 9 -7
17 8 34 l19 23 -22 -19 c-13 -11 -23 -16 -23 -11 0 4 -6 2 -14 -4 -18 -15 -32
4 -17 23 8 9 7 13 -4 13 -9 0 -21 -7 -27 -16z m37 -73 c-1 -13 -5 -22 -8 -20
-4 1 -12 2 -19 2 -6 0 -3 9 7 20 22 25 22 25 20 -2z m35 -54 c0 -8 -19 -13
-24 -6 -3 5 1 9 9 9 8 0 15 -2 15 -3z m40 -30 c0 -8 -5 -12 -10 -9 -6 4 -8 11
-5 16 9 14 15 11 15 -7z"/>
<path d="M1671 534 c-21 -14 -28 -24 -19 -26 8 -3 -1 -12 -20 -22 -19 -10 -31
-20 -28 -23 3 -3 21 5 41 17 28 18 34 25 23 32 -9 7 -8 8 5 4 10 -3 22 -6 25
-6 8 0 -49 -38 -103 -69 -36 -21 -37 -21 -15 -2 34 28 12 27 -24 -2 -28 -23
-28 -23 -5 -22 26 0 203 104 194 113 -3 3 -11 0 -17 -6 -7 -7 -17 -12 -22 -12
-6 0 6 11 26 23 l37 23 -33 0 c-18 0 -48 -10 -65 -22z m39 1 c-7 -8 -18 -15
-24 -15 -6 0 -2 7 8 15 25 19 32 19 16 0z"/>
<path d="M1780 430 c-9 -6 -10 -10 -3 -10 6 0 15 5 18 10 8 12 4 12 -15 0z"/>
<path d="M190 380 c11 -16 26 -33 32 -36 7 -4 -1 9 -16 29 -34 44 -46 50 -16
7z"/>
<path d="M1730 345 c-14 -8 -20 -14 -14 -15 5 0 19 7 30 15 24 18 16 19 -16 0z"/>
<path d="M310 320 c6 -11 13 -20 16 -20 2 0 0 9 -6 20 -6 11 -13 20 -16 20 -2
0 0 -9 6 -20z"/>
<path d="M270 326 c0 -2 8 -10 18 -17 15 -13 16 -12 3 4 -13 16 -21 21 -21 13z"/>
<path d="M600 322 c0 -5 11 -14 25 -20 29 -13 33 -5 8 14 -21 15 -33 18 -33 6z"/>
<path d="M1005 304 c-11 -8 -19 -20 -17 -26 2 -6 -4 -8 -12 -5 -9 4 -15 2 -13
-3 1 -5 -7 -15 -17 -23 -17 -13 -17 -14 -2 -20 10 -4 15 -3 11 3 -4 6 2 7 12
4 13 -4 15 -3 5 4 -11 7 -11 10 3 15 10 5 14 3 9 -4 -4 -7 -1 -10 7 -7 8 3 15
10 15 16 1 7 3 14 4 17 1 3 3 9 4 14 0 5 4 12 8 16 9 9 5 -16 -5 -32 -9 -14 5
-18 17 -5 4 4 17 7 28 7 12 0 22 7 24 17 1 10 -5 16 -14 16 -10 0 -24 2 -32 5
-8 4 -24 -1 -35 -9z m60 -14 c3 -6 -1 -7 -9 -4 -18 7 -21 14 -7 14 6 0 13 -4
16 -10z"/>
<path d="M1660 295 c-11 -13 -10 -14 4 -9 9 3 16 10 16 15 0 13 -6 11 -20 -6z"/>
<path d="M567 273 c-4 -3 -7 -11 -7 -17 0 -6 5 -5 12 2 6 6 9 14 7 17 -3 3 -9
2 -12 -2z"/>
<path d="M994 234 c-12 -8 -32 -17 -45 -19 -12 -3 -30 -12 -38 -22 -15 -15
-15 -16 1 -4 17 13 43 6 33 -9 -9 -14 20 -18 38 -5 16 11 16 13 2 19 -9 3 -13
2 -10 -4 3 -6 -1 -7 -10 -3 -22 8 1 23 24 16 14 -4 14 -3 1 6 -8 6 -10 11 -4
11 5 0 19 7 30 15 25 19 5 18 -22 -1z"/>
<path d="M853 225 c0 -8 7 -17 16 -20 8 -3 12 -3 8 1 -4 4 -3 12 3 18 6 8 3
12 -9 13 -10 1 -18 -5 -18 -12z"/>
<path d="M369 203 c-13 -16 -12 -17 4 -4 16 13 21 21 13 21 -2 0 -10 -8 -17
-17z"/>
<path d="M401 196 c-10 -11 -9 -14 1 -12 14 2 23 15 15 22 -2 2 -10 -2 -16
-10z"/>
<path d="M1045 200 c-3 -5 -2 -10 4 -10 5 0 13 5 16 10 3 6 2 10 -4 10 -5 0
-13 -4 -16 -10z"/>
<path d="M783 163 c4 -3 -1 -16 -10 -27 -18 -21 -18 -21 4 -2 20 16 23 36 6
36 -4 0 -3 -3 0 -7z"/>
<path d="M870 100 c-9 -6 -10 -10 -3 -10 6 0 15 5 18 10 8 12 4 12 -15 0z"/>
</g>
</svg>
